<mxfile host="app.diagrams.net" modified="2024-05-29T23:06:53.754Z" agent="Mozilla/5.0 (X11; Linux x86_64) AppleWebKit/537.36 (KHTML, like Gecko) Chrome/125.0.0.0 Safari/537.36" version="24.4.9" etag="XCi0z2hnCCYscJgMH2eh" type="github">
  <diagram name="Page-1" id="g0RmpGVzYt457HzAfOx5">
    <mxGraphModel>
      <root>
        <mxCell id="0" />
        <mxCell id="1" parent="0" />
      </root>
    </mxGraphModel>
  </diagram>
</mxfile>
